{"accessors":[{"bufferView":0,"byteOffset":0,"componentType":5126,"count":120,"max":[2.797729,1.927612,1.246094],"min":[-3.725159,-0.5,-0.5],"normalized":false,"type":"VEC3"},{"bufferView":1,"byteOffset":0,"componentType":5126,"count":120,"max":[0.000122,0,0.000076,1],"min":[-1,-1,-1,-1],"normalized":false,"type":"VEC4"},{"bufferView":2,"byteOffset":0,"componentType":5126,"count":120,"max":[1,1,1],"min":[-1,-1,-1],"normalized":false,"type":"VEC3"},{"bufferView":3,"byteOffset":0,"componentType":5126,"count":120,"max":[1,1],"min":[0,0],"normalized":false,"type":"VEC2"},{"bufferView":4,"byteOffset":0,"componentType":5125,"count":120,"max":[119],"min":[0],"normalized":false,"type":"SCALAR"}],"asset":{"generator":"Godot Engine v4.2.1.stable.official@b09f793f564a6c95dc76acc654b390e68441bd01","version":"2.0"},"bufferViews":[{"buffer":0,"byteLength":1440,"byteOffset":0},{"buffer":0,"byteLength":1920,"byteOffset":1440},{"buffer":0,"byteLength":1440,"byteOffset":3360},{"buffer":0,"byteLength":960,"byteOffset":4800},{"buffer":0,"byteLength":480,"byteOffset":5760}],"buffers":[{"byteLength":6240,"uri":"debug0.bin"}],"extensionsUsed":["GODOT_single_root"],"materials":[{"extensions":{},"pbrMetallicRoughness":{"baseColorFactor":[0.99999988079071,0.99999988079071,0.99999988079071,1],"metallicFactor":0,"roughnessFactor":1}}],"meshes":[{"extras":{"targetNames":[]},"primitives":[{"attributes":{"NORMAL":2,"POSITION":0,"TANGENT":1,"TEXCOORD_0":3},"indices":4,"material":0,"mode":4}]}],"nodes":[{"children":[1],"extensions":{},"name":"Debug"},{"children":[2],"extensions":{},"mesh":0,"name":"CSGCombiner3D2"},{"children":[3],"extensions":{},"name":"CSGBox3D","translation":[-0.46371459960938,0.71380615234375,0.373046875]},{"extensions":{},"name":"CSGBox3D2","translation":[-1.02998018264771,1.45357418060303,0.407534122467041]}],"scene":0,"scenes":[{"nodes":[0]}]}